<?xml version="1.0" encoding="UTF-8"?>
<svg id="a" data-name="Layer 1" xmlns="http://www.w3.org/2000/svg" viewBox="0 0 501.13 263.46">
  <defs>
    <style>
      .b {
        fill: #f1f2f2;
      }
    </style>
  </defs>
  <path class="b" d="m103.74,132.45l-3.22,4.1c-10.84,13.87-20.46,25.19-28.85,33.98,8.5-4.88,18.46-7.32,29.88-7.32,12.69,0,27.68,3.27,44.97,9.81l94.33,41.96,41.6,16.99c17.38,7.03,28.02,10.55,31.93,10.55,4.39,0,10.01-3.17,16.84-9.52l3.81,3.95c-8.69,7.81-17.19,16.65-25.49,26.51-14.84-5.18-37.79-14.4-68.84-27.68-56.93-24.31-145.35-62.18-156.87-62.18-5.76,0-10.6,1.22-14.5,3.66-3.91,2.44-10.3,8.25-19.19,17.43l-2.64,2.64-2.93-4.69c11.72-12.01,25-27.1,39.84-45.26l10.4-12.6c.2-.29,1.03-1.32,2.49-3.08-2.83-.29-5.27-.44-7.32-.44-15.72,0-28.22,4.56-37.5,13.69-9.28,9.13-13.91,21.41-13.91,36.84,0,13.57,5.39,25.02,16.18,34.35,10.79,9.33,23.95,13.99,39.47,13.99,10.84,0,23.34-4.15,37.5-12.45l3.08,4.39c-16.99,11.42-31.9,14.54-48.4,14.54s-29.7-5.35-39.17-14.97c-9.47-9.62-14.48-18.12-16.24-34.23-2.38-21.88,3-39.26,18.47-53.5,13.52-12.44,30.17-18.62,49.31-18.62,3.42,0,6.79.1,10.11.29l1.76.15,3.81-4.98c23.82-29.88,45.63-51.46,65.4-64.74,19.77-13.28,40.06-19.92,60.86-19.92,14.65,0,26.17,3.44,34.57,10.33,8.4,6.88,12.6,16.33,12.6,28.34,0,10.94-4.01,22.56-12.01,34.86-8.99,13.87-20.7,24.83-35.15,32.88-14.45,8.06-29.64,12.08-45.55,12.08-14.55,0-38.43-3.03-71.62-9.08-8.59-1.56-15.18-2.59-19.77-3.08Zm13.48-16.11c7.71.88,18.31,2.49,31.78,4.83,28.51,4.98,48.72,7.47,60.64,7.47,17.96,0,33.69-5.25,47.16-15.75,13.48-10.49,20.21-22.78,20.21-36.84,0-12.5-4.23-22.46-12.67-29.88-8.45-7.42-19.75-11.13-33.91-11.13-17.58,0-36.81,7.71-57.71,23.14-14.45,10.74-31.69,28.56-51.7,53.46l-3.81,4.69Z"/>
  <path class="b" d="m70.31,113.32c-18.36,0-33.08,5.42-44.16,16.26-11.08,10.84-16.62,25.24-16.62,43.21,0,22.46,7.61,41.21,23.69,55.88,17.91,16.34,41.39,23.16,66.25,19.85,23.23-3.1,109.54-62.71,132.24-77.8,22.7-15.09,44.4-37.23,65.11-66.42-1.86-10.55-2.78-19.38-2.78-26.51,0-17.67,3.86-35.06,11.57-52.14,7.71-17.09,15.57-25.63,23.58-25.63s11.86,6.74,11.86,20.21c0,8.69-2.34,18.67-7.03,29.95-4.69,11.28-12.45,25.61-23.29,42.99,1.07,5.18,3.22,14.06,6.44,26.66,5.57,21.78,9.13,40.43,10.69,55.95,2.34-3.03,3.9-5.03,4.69-6.01l9.67-11.86,68.4-84.66c16.21-20.02,27.9-33.66,35.08-40.94,7.18-7.27,14.87-13.2,23.07-17.8,10.84-6.05,21.63-9.08,32.37-9.08l-11.57,38.52-5.42-.88.73-2.78c.68-2.44,1.03-4.49,1.03-6.15,0-5.08-4.05-7.62-12.16-7.62-10.64,0-20.78,5.42-30.39,16.26-9.62,10.84-17.06,25.19-22.34,43.06-3.03,10.25-6.79,27.68-11.28,52.29-4.49,24.61-6.74,40.04-6.74,46.28,0,4.98,2.25,7.47,6.74,7.47,3.12,0,7.67-1.37,13.62-4.1l2.64,4.54c-4.3,1.76-11.82,4.69-22.56,8.79-8.2,3.13-15.43,6.1-21.68,8.93,0-8.79,2.07-25.07,6.22-48.85,4.15-23.78,8.96-46.94,14.43-69.5l-5.27,6.59c-4.3,5.47-10.94,13.77-19.92,24.9l-31.93,39.69-32.52,40.13-3.22,4.1-3.66-2.64c3.42-6.64,5.13-13.23,5.13-19.77,0-10.84-2.54-27.49-7.62-49.95l-4.54-19.77c-.1-.2-.34-1.27-.73-3.22-23.24,31.15-48.12,53.87-72.21,71.62-24.32,17.92-78.7,76.49-136.98,79.35-21.03,1.03-32.12-1.62-45.93-8.36-13.82-6.74-24.33-15.47-32.24-26.99C1.67,214.4,0,197.64,0,179.96c0-22.94,7.88-41.55,23.65-55.81,15.77-14.26,36.35-21.38,61.74-21.38m224.3-18.7c5.86-10.16,10.57-20.51,14.13-31.05,3.56-10.55,5.35-19.38,5.35-26.51,0-7.52-2.59-11.28-7.76-11.28-3.91,0-7.23,4.13-9.96,12.38-2.73,8.25-4.1,18.19-4.1,29.81,0,7.52.78,16.4,2.34,26.66Z"/>
</svg>